<svg width="161" height="46" fill="none" xmlns="http://www.w3.org/2000/svg"><path d="M82.25 34.87h9.38c-.51 3.3-2.13 5.93-4.86 7.9-2.73 1.96-6.18 2.94-10.34 2.94-5.08 0-9.05-1.47-11.92-4.41-2.87-2.94-4.31-6.99-4.31-12.14s1.43-9.26 4.29-12.3c2.86-3.05 6.72-4.57 11.59-4.57 4.8 0 8.63 1.46 11.47 4.37s4.26 6.81 4.26 11.69v2.93H70.27v.64c0 1.91.58 3.47 1.74 4.66 1.16 1.19 2.68 1.79 4.56 1.79 1.39 0 2.59-.31 3.6-.94 1.02-.63 1.71-1.48 2.08-2.56zm-6-15.2c-1.58 0-2.92.53-4 1.6s-1.69 2.43-1.83 4.09h11.6c-.1-1.7-.67-3.07-1.73-4.12-1.06-1.05-2.4-1.57-4.04-1.57zM15.56 32.5c0 1.44.32 2.43.96 2.97.64.54 1.64.81 3 .81h1.74v8.7h-3.54c-4.32 0-7.46-.89-9.42-2.67-1.96-1.78-2.94-4.77-2.94-8.97V21.7H0v-8.16h5.36V5.62h10.2v7.92h5.7v8.16h-5.7v10.8zM37.29 5.32v11.23c1.96-2.56 4.8-3.84 8.52-3.84 3.16 0 5.8.99 7.92 2.97 2.12 1.98 3.18 4.99 3.18 9.03v20.1h-10.2v-17.7c0-1.72-.42-3.02-1.26-3.9-.84-.88-1.98-1.32-3.42-1.32-1.32 0-2.44.45-3.36 1.35-.92.9-1.38 2.19-1.38 3.87v17.7h-10.2V1.19l10.2 4.13z" fill="#CCC"/><path d="M111.08 45V11.07h-9.53L106.77 1h15.35v44h-11.04zm49.09-21.47c0 6.8-1.44 12.14-4.32 16.03-2.88 3.89-6.84 5.83-11.88 5.83-5.04 0-9.01-1.98-11.91-5.93-2.9-3.95-4.35-9.4-4.35-16.33 0-6.91 1.45-12.34 4.35-16.29 2.9-3.95 6.87-5.92 11.91-5.92 5.12 0 9.1 1.98 11.94 5.93 2.84 3.95 4.26 9.51 4.26 16.68zm-21.65-.41c0 4.69.43 8.11 1.3 10.27.87 2.16 2.25 3.24 4.15 3.24 1.86 0 3.22-1.08 4.09-3.25.87-2.17 1.3-5.59 1.3-10.25 0-4.63-.43-8.04-1.3-10.22-.87-2.19-2.23-3.28-4.09-3.28-1.91 0-3.3 1.07-4.16 3.21-.86 2.12-1.29 5.55-1.29 10.28z" fill="#232323"/></svg>