<svg width="271" height="271" fill="none" xmlns="http://www.w3.org/2000/svg"><circle cx="135.5" cy="135.5" r="135.5" fill="url(#paint0_radial)"/><path d="M175.633 95.946l-79.688 33.456 36.54 9.692 9.687 36.535 33.461-79.683z" fill="#fff"/><path opacity=".2" d="M135.788 208.577a73.523 73.523 0 01-14.199-1.39 72.38 72.38 0 01-13.662-4.139c-8.732-3.615-16.896-9.076-23.608-15.791-6.714-6.712-12.176-14.875-15.79-23.607a72.355 72.355 0 01-4.14-13.661A73.494 73.494 0 0163 135.792a73.51 73.51 0 011.39-14.203 72.386 72.386 0 014.139-13.662c3.614-8.732 9.076-16.896 15.79-23.608 6.712-6.714 14.876-12.174 23.608-15.79a72.332 72.332 0 0113.661-4.14A73.479 73.479 0 01135.785 63l1.804.023.312.011a73.261 73.261 0 016.225.444c.216.026.436.052.662.076l.016.002c.481.058.966.128 1.479.2.2.03.642.092.642.092l1.714.284.588.112 1.244.24 1.257.273c2.004.453 3.839.94 5.621 1.493a74.106 74.106 0 016.301 2.28 73.776 73.776 0 016.851 3.267 75.002 75.002 0 017.201 4.48 73.382 73.382 0 0114.352 13.336 73.403 73.403 0 016.401 9.138 72.116 72.116 0 015.257 10.837 71.777 71.777 0 013.56 12.443 73.531 73.531 0 011.305 13.759 73.62 73.62 0 01-1.305 13.761 71.85 71.85 0 01-3.56 12.445 72.212 72.212 0 01-5.259 10.84 73.585 73.585 0 01-6.395 9.131 73.443 73.443 0 01-14.35 13.336 75.34 75.34 0 01-7.202 4.48 73.716 73.716 0 01-6.854 3.269 73.884 73.884 0 01-6.297 2.28 73.356 73.356 0 01-5.612 1.49l-1.303.284-1.211.232-.619.117-1.699.282-.623.088c-.515.073-1.001.142-1.481.201l-.016.001-.661.076c-.42.05-.816.095-1.212.131-2.167.216-3.88.275-5.014.314l-.344.011-1.76.022h-.012v-.004zm-.006-137.598a65.52 65.52 0 00-12.645 1.237 64.425 64.425 0 00-12.154 3.682c-7.774 3.219-15.044 8.082-21.02 14.063-5.982 5.978-10.845 13.248-14.063 21.021a64.372 64.372 0 00-3.682 12.153 65.392 65.392 0 00-1.237 12.651 65.497 65.497 0 001.237 12.652 64.41 64.41 0 003.682 12.154c3.218 7.774 8.08 15.042 14.062 21.021 5.979 5.981 13.248 10.844 21.021 14.062 3.91 1.623 8 2.861 12.154 3.682a65.339 65.339 0 0012.645 1.237l1.6-.02.315-.011a63.723 63.723 0 004.446-.279l.017-.002c.323-.029.666-.069 1.028-.111.211-.025.429-.051.65-.075.398-.048.814-.107 1.253-.17l.609-.087 1.525-.253 1.629-.311 1.149-.25a66.445 66.445 0 004.985-1.324 65.597 65.597 0 005.604-2.028 65.462 65.462 0 006.1-2.909 67.163 67.163 0 006.413-3.99 65.437 65.437 0 0012.782-11.878 65.472 65.472 0 005.698-8.135 64.282 64.282 0 004.682-9.649 63.833 63.833 0 003.166-11.067 65.595 65.595 0 001.163-12.26 65.592 65.592 0 00-1.163-12.259 63.846 63.846 0 00-3.165-11.065 64.161 64.161 0 00-4.679-9.647 65.503 65.503 0 00-5.702-8.142 65.449 65.449 0 00-12.784-11.879 66.728 66.728 0 00-6.414-3.989 65.905 65.905 0 00-6.097-2.907 65.675 65.675 0 00-5.607-2.03 65.81 65.81 0 00-4.995-1.326l-1.138-.248-1.627-.31-1.526-.254-.608-.085c-.439-.062-.855-.121-1.253-.17l-.652-.075a32.666 32.666 0 00-1.026-.11l-.017-.002a63.555 63.555 0 00-4.444-.279l-.317-.01-1.6-.019z" fill="#fff" stroke="#000" stroke-width=".25"/><path opacity=".2" d="M135.788 188.626a53.334 53.334 0 01-10.305-1.013 52.61 52.61 0 01-9.917-3.005c-6.339-2.624-12.265-6.586-17.137-11.457a53.3 53.3 0 01-11.46-17.14 52.667 52.667 0 01-3.005-9.916 53.47 53.47 0 01-1.012-10.303v-.039l.06-2.387a7.61 7.61 0 01.026-.533l.166-2.179c.012-.205.035-.394.059-.577l.106-.838.195-1.523.297-1.665.164-.908.486-2.105a12.3 12.3 0 01.212-.831l.587-2.067.008-.026c.164-.497.336-1.006.514-1.526l.328-.97.344-.875.574-1.455c.037-.092.075-.173.11-.253l.852-1.884c.095-.22.197-.418.296-.609l.466-.91.537-1.045.74-1.29c.07-.119.14-.239.208-.36.179-.315.365-.64.586-.97.125-.193.25-.388.374-.585.424-.665.862-1.351 1.367-2.034.102-.14.202-.283.302-.425.206-.29.417-.59.646-.89l1.037-1.321.165-.209c.116-.149.248-.318.397-.487l1.103-1.275.167-.191c.135-.157.289-.336.46-.51l1.533-1.608.346-.33 1.308-1.248c.119-.115.249-.235.401-.363l.344-.299c.158-.136.314-.27.468-.405.313-.273.638-.555.971-.834l.012-.011a55.428 55.428 0 016.627-4.635c2.408-1.446 5.058-2.73 7.875-3.817a53.118 53.118 0 019.028-2.585 53.267 53.267 0 018.61-.936v-.02l1.376.001 1.376-.001v.02c2.897.079 5.788.393 8.611.936a53.025 53.025 0 019.028 2.585 50.862 50.862 0 017.879 3.819 55.44 55.44 0 016.622 4.633l.013.01c.333.279.657.56.971.835.156.134.31.27.464.401l.348.302c.151.128.282.247.4.363l1.654 1.578 1.533 1.607c.173.175.326.354.461.511l.157.181 1.12 1.294c.14.158.271.327.387.477.055.07.108.141.165.209l1.037 1.321c.227.3.439.6.646.891.1.143.2.284.302.425.505.682.943 1.369 1.367 2.033.125.197.249.393.374.585.22.331.406.655.586.97.069.121.138.243.208.361l.74 1.289.655 1.276.348.681c.099.191.201.389.296.609l.852 1.884c.037.08.073.161.106.242l.602 1.525.321.814.329.97c.176.521.349 1.03.513 1.526l.008.027.588 2.066c.088.293.154.578.212.831l.286 1.239.199.867.163.906.297 1.667.195 1.52.106.841c.024.183.049.371.06.576l.165 2.18c.018.192.022.364.026.539l.029 1.118.031 1.296a53.42 53.42 0 01-1.012 10.308 52.713 52.713 0 01-3.005 9.917c-2.624 6.339-6.587 12.266-11.458 17.138-4.873 4.872-10.799 8.834-17.139 11.459a52.684 52.684 0 01-9.917 3.005 53.487 53.487 0 01-10.303 1.013h-.004v.001zm-44.856-52.822c.006 5.866 1.184 11.795 3.409 17.15a45.244 45.244 0 009.729 14.552 45.26 45.26 0 0014.551 9.73c5.362 2.228 11.297 3.407 17.167 3.41 5.871-.003 11.807-1.182 17.166-3.409a45.244 45.244 0 0014.553-9.729 45.284 45.284 0 009.729-14.551c2.226-5.357 3.404-11.287 3.41-17.152l-.054-2.13c-.003-.125-.004-.221-.012-.307l-.154-2.028-.002-.018a4 4 0 00-.036-.33l-.262-2.065-.306-1.706-.085-.478-.424-1.837a7.033 7.033 0 00-.143-.565l-.523-1.841-.72-2.136-.798-2.024-.046-.106-.285-.629-.502-1.111a6.014 6.014 0 00-.188-.384l-.876-1.711-.629-1.092c-.065-.11-.135-.234-.205-.358-.142-.25-.277-.487-.421-.702l-.014-.02c-.13-.2-.258-.403-.389-.607-.346-.542-.703-1.104-1.091-1.625l-.013-.017-.309-.434a25.928 25.928 0 00-.503-.697l-.897-1.14a19.49 19.49 0 01-.176-.226 5.842 5.842 0 00-.245-.304l-1.01-1.166c-.048-.053-.103-.119-.159-.184-.102-.12-.198-.233-.289-.322l-1.367-1.432-1.466-1.4a4.504 4.504 0 00-.225-.202l-.327-.283a69.989 69.989 0 01-.478-.415c-.253-.22-.514-.448-.774-.666a47.658 47.658 0 00-5.636-3.94 42.719 42.719 0 00-6.672-3.233 44.78 44.78 0 00-16.143-3.005 44.833 44.833 0 00-16.143 3.005c-2.398.925-4.643 2.012-6.668 3.231a47.495 47.495 0 00-5.64 3.944c-.26.217-.522.446-.775.666l-.481.417-.324.279a3.42 3.42 0 00-.224.202l-1.467 1.4-1.366 1.432c-.09.089-.187.202-.289.322-.057.065-.112.131-.168.194l-1.002 1.154a5.998 5.998 0 00-.245.305c-.057.075-.117.151-.176.225l-.897 1.141c-.17.224-.332.454-.502.696-.103.146-.205.292-.31.435l-.012.016a26.773 26.773 0 00-1.091 1.625c-.13.204-.259.408-.39.607l-.013.021c-.145.213-.28.451-.421.702-.07.124-.14.246-.212.368l-.622 1.082-.877 1.71c-.071.139-.139.27-.187.384l-.787 1.741c-.017.034-.033.07-.047.106l-.798 2.024-.72 2.135-.522 1.841c-.054.172-.097.364-.144.566a8.627 8.627 0 01-.05.219l-.194.84-.18.779-.134.75-.257 1.434-.263 2.065a4.261 4.261 0 00-.036.33l-.156 2.045a3.61 3.61 0 00-.012.299l-.025 1.021-.033 1.117z" fill="#fff" stroke="#000" stroke-width=".25"/><defs><radialGradient id="paint0_radial" cx="0" cy="0" r="1" gradientUnits="userSpaceOnUse" gradientTransform="rotate(89.789 -.25 135.75) scale(135.501)"><stop stop-color="#9E4BE8"/><stop offset="1" stop-color="#9E4BE8" stop-opacity="0"/></radialGradient></defs></svg>