<svg width="18" height="20" viewBox="0 0 18 20" fill="none" xmlns="http://www.w3.org/2000/svg">
<path d="M6.58285 20H2.05532C1.29147 20 0.666504 19.4 0.666504 18.6667V1.33333C0.666504 0.6 1.29147 0 2.05532 0H6.58285C7.3467 0 7.97166 0.6 7.97166 1.33333V18.6667C7.97166 19.4 7.3467 20 6.58285 20Z" fill="black"/>
<path d="M15.9442 20H11.4166C10.6528 20 10.0278 19.4 10.0278 18.6667V1.33333C10.0278 0.6 10.6528 0 11.4166 0H15.9442C16.708 0 17.333 0.6 17.333 1.33333V18.6667C17.333 19.4 16.708 20 15.9442 20Z" fill="black"/>
</svg>
