<svg width="161" height="46" viewBox="0 0 161 46" fill="none" xmlns="http://www.w3.org/2000/svg">
<path d="M82.25 34.87H91.63C91.12 38.17 89.5 40.8 86.77 42.77C84.04 44.73 80.59 45.71 76.43 45.71C71.35 45.71 67.38 44.24 64.51 41.3C61.64 38.36 60.2 34.31 60.2 29.16C60.2 24.01 61.63 19.9 64.49 16.86C67.35 13.81 71.21 12.29 76.08 12.29C80.88 12.29 84.71 13.75 87.55 16.66C90.39 19.57 91.81 23.47 91.81 28.35V31.28H70.27V31.92C70.27 33.83 70.85 35.39 72.01 36.58C73.17 37.77 74.69 38.37 76.57 38.37C77.96 38.37 79.16 38.06 80.17 37.43C81.19 36.8 81.88 35.95 82.25 34.87ZM76.25 19.67C74.67 19.67 73.33 20.2 72.25 21.27C71.17 22.34 70.56 23.7 70.42 25.36H82.02C81.92 23.66 81.35 22.29 80.29 21.24C79.23 20.19 77.89 19.67 76.25 19.67Z" fill="#CCCCCC"/>
<path d="M15.56 32.4999C15.56 33.9399 15.88 34.9299 16.52 35.4699C17.16 36.0099 18.16 36.2799 19.52 36.2799H21.26V44.9799H17.72C13.4 44.9799 10.26 44.0899 8.3 42.3099C6.34 40.5299 5.36 37.5399 5.36 33.3399V21.6999H0V13.5399H5.36V5.61987H15.56V13.5399H21.26V21.6999H15.56V32.4999Z" fill="#CCCCCC"/>
<path d="M37.29 5.31994V16.5499C39.25 13.9899 42.09 12.7099 45.81 12.7099C48.97 12.7099 51.61 13.6999 53.73 15.6799C55.85 17.6599 56.91 20.6699 56.91 24.7099V44.8099H46.71V27.1099C46.71 25.3899 46.29 24.0899 45.45 23.2099C44.61 22.3299 43.47 21.8899 42.03 21.8899C40.71 21.8899 39.59 22.3399 38.67 23.2399C37.75 24.1399 37.29 25.4299 37.29 27.1099V44.8099H27.09V1.18994L37.29 5.31994Z" fill="#CCCCCC"/>
<path d="M111.08 45V11.07H101.55L106.77 1H122.12V45H111.08Z" fill="#232323"/>
<path d="M160.17 23.5299C160.17 30.3299 158.73 35.6699 155.85 39.5599C152.97 43.4499 149.01 45.3899 143.97 45.3899C138.93 45.3899 134.96 43.4099 132.06 39.4599C129.16 35.5099 127.71 30.0599 127.71 23.1299C127.71 16.2199 129.16 10.7899 132.06 6.83992C134.96 2.88992 138.93 0.919922 143.97 0.919922C149.09 0.919922 153.07 2.89992 155.91 6.84992C158.75 10.7999 160.17 16.3599 160.17 23.5299ZM138.52 23.1199C138.52 27.8099 138.95 31.2299 139.82 33.3899C140.69 35.5499 142.07 36.6299 143.97 36.6299C145.83 36.6299 147.19 35.5499 148.06 33.3799C148.93 31.2099 149.36 27.7899 149.36 23.1299C149.36 18.4999 148.93 15.0899 148.06 12.9099C147.19 10.7199 145.83 9.62992 143.97 9.62992C142.06 9.62992 140.67 10.6999 139.81 12.8399C138.95 14.9599 138.52 18.3899 138.52 23.1199Z" fill="#232323"/>
</svg>
