<svg width="271" height="271" viewBox="0 0 271 271" fill="none" xmlns="http://www.w3.org/2000/svg">
<circle cx="135.5" cy="135.5" r="135.5" fill="url(#paint0_radial)"/>
<path d="M175.633 95.9463L95.9448 129.402L132.485 139.094L142.172 175.629L175.633 95.9463Z" fill="white"/>
<path opacity="0.2" d="M135.788 208.577C131.009 208.574 126.231 208.106 121.589 207.187C116.919 206.264 112.323 204.871 107.927 203.048C99.195 199.433 91.0313 193.972 84.3193 187.257C77.6046 180.545 72.1433 172.382 68.5287 163.65C66.7055 159.255 65.313 154.659 64.3897 149.989C63.4706 145.346 63.0028 140.57 63 135.792C63.0028 131.009 63.4706 126.231 64.3897 121.589C65.313 116.919 66.7055 112.323 68.5287 107.927C72.1433 99.195 77.6046 91.0313 84.3193 84.3193C91.0313 77.6046 99.195 72.1447 107.927 68.5287C112.322 66.7055 116.917 65.313 121.588 64.3897C126.23 63.4706 131.006 63.0028 135.785 63L137.589 63.0234L137.901 63.0344C139.035 63.0729 140.748 63.1321 142.915 63.3481C143.31 63.3839 143.706 63.4293 144.126 63.4788C144.342 63.5036 144.562 63.5297 144.788 63.5545L144.804 63.5559C145.285 63.6137 145.77 63.6839 146.283 63.7568C146.483 63.7857 146.925 63.8476 146.925 63.8476L148.639 64.1324L149.227 64.2439L150.471 64.4833L151.728 64.7571C153.732 65.2098 155.567 65.6969 157.349 66.25C159.486 66.916 161.605 67.6824 163.65 68.53C165.976 69.4946 168.281 70.594 170.501 71.7966C172.955 73.1354 175.378 74.6421 177.702 76.2768C183.087 80.0855 187.915 84.5711 192.054 89.6127C194.458 92.5504 196.61 95.6243 198.455 98.7505C200.472 102.14 202.242 105.787 203.712 109.588C205.251 113.55 206.449 117.738 207.272 122.031C208.135 126.54 208.575 131.168 208.577 135.79C208.574 140.414 208.135 145.042 207.272 149.551C206.449 153.844 205.251 158.032 203.712 161.996C202.243 165.793 200.473 169.441 198.453 172.836C196.612 175.956 194.459 179.03 192.058 181.967C187.916 187.011 183.088 191.497 177.708 195.303C175.38 196.939 172.958 198.445 170.506 199.783C168.284 200.988 165.979 202.086 163.652 203.052C161.609 203.9 159.49 204.666 157.355 205.332C155.571 205.885 153.736 206.372 151.743 206.822L150.44 207.106L149.229 207.338L148.61 207.455L146.911 207.737C146.911 207.737 146.487 207.796 146.288 207.825C145.773 207.898 145.287 207.967 144.807 208.026L144.791 208.027C144.566 208.052 144.346 208.078 144.13 208.103C143.71 208.153 143.314 208.198 142.918 208.234C140.751 208.45 139.038 208.509 137.904 208.548L137.56 208.559L135.8 208.581H135.788V208.577ZM135.782 70.9793C131.523 70.982 127.269 71.3989 123.137 72.2163C118.981 73.0377 114.893 74.2775 110.983 75.8984C103.209 79.1168 95.9394 83.9795 89.9622 89.9608C83.9808 95.9394 79.1181 103.209 75.8997 110.982C74.2775 114.892 73.0391 118.981 72.2176 123.135C71.3989 127.27 70.982 131.526 70.9806 135.786C70.9834 140.048 71.3989 144.303 72.2176 148.438C73.0391 152.594 74.2788 156.683 75.8997 160.592C79.1181 168.366 83.9808 175.634 89.9622 181.613C95.9408 187.594 103.21 192.457 110.983 195.675C114.893 197.298 118.983 198.536 123.137 199.357C127.269 200.176 131.523 200.592 135.782 200.594L137.382 200.574L137.697 200.563C138.771 200.526 140.24 200.475 142.143 200.284L142.16 200.282C142.483 200.253 142.826 200.213 143.188 200.171C143.399 200.146 143.617 200.12 143.838 200.096C144.236 200.048 144.652 199.989 145.091 199.926C145.29 199.897 145.494 199.868 145.7 199.839L147.225 199.586L148.854 199.275L150.003 199.025C151.776 198.623 153.411 198.189 154.988 197.701C156.888 197.109 158.775 196.427 160.592 195.673C162.663 194.814 164.715 193.836 166.692 192.764C168.871 191.575 171.03 190.232 173.105 188.774C177.899 185.382 182.2 181.386 185.887 176.896C188.029 174.276 189.947 171.538 191.585 168.761C193.382 165.742 194.956 162.498 196.267 159.112C197.635 155.591 198.7 151.867 199.433 148.045C200.202 144.03 200.593 139.904 200.596 135.785C200.593 131.667 200.202 127.541 199.433 123.526C198.7 119.704 197.635 115.98 196.268 112.461C194.957 109.073 193.383 105.827 191.589 102.814C189.949 100.032 188.03 97.2947 185.887 94.6721C182.202 90.1851 177.901 86.1879 173.103 82.7934C171.032 81.3376 168.873 79.9946 166.689 78.8044C164.716 77.7353 162.663 76.757 160.592 75.897C158.775 75.143 156.888 74.4605 154.985 73.8674C153.41 73.379 151.776 72.9455 149.99 72.541L148.852 72.2933L147.225 71.9823L145.699 71.7292C145.492 71.7003 145.29 71.6714 145.091 71.6439C144.652 71.5819 144.236 71.5228 143.838 71.4732C143.617 71.4485 143.399 71.4237 143.186 71.3989C142.824 71.3563 142.483 71.3164 142.16 71.2889L142.143 71.2875C140.242 71.0962 138.772 71.0453 137.699 71.0082L137.382 70.9972L135.782 70.9793Z" fill="white" stroke="black" stroke-width="0.25"/>
<path opacity="0.2" d="M135.788 188.626C132.319 188.622 128.851 188.282 125.483 187.613C122.093 186.942 118.756 185.931 115.566 184.608C109.227 181.984 103.301 178.022 98.4286 173.151C93.5563 168.278 89.5949 162.352 86.9695 156.011C85.6472 152.822 84.6359 149.485 83.9644 146.095C83.297 142.726 82.9558 139.259 82.9517 135.792V135.753L83.0122 133.366C83.0163 133.198 83.0205 133.026 83.0383 132.833L83.2035 130.654C83.2158 130.449 83.2392 130.26 83.2626 130.077L83.3686 129.239L83.564 127.716L83.8612 126.051L84.0249 125.143C84.0249 125.143 84.4941 123.111 84.5106 123.038C84.5684 122.786 84.6345 122.5 84.7225 122.207L85.3101 120.14L85.3183 120.114C85.4821 119.617 85.6541 119.108 85.8316 118.588L86.1604 117.618L86.5044 116.743L87.0782 115.288C87.1154 115.196 87.1525 115.115 87.1883 115.035L88.04 113.151C88.1349 112.931 88.2368 112.733 88.3358 112.542L88.8023 111.632L89.3389 110.587L90.0792 109.297C90.1494 109.178 90.2182 109.058 90.287 108.937C90.4658 108.622 90.6516 108.297 90.8731 107.967C90.9983 107.774 91.1222 107.579 91.2474 107.382C91.6712 106.717 92.1088 106.031 92.6137 105.348C92.7156 105.208 92.816 105.065 92.9165 104.923C93.1215 104.633 93.3334 104.333 93.5618 104.033L94.5993 102.712C94.6543 102.643 94.7093 102.573 94.7644 102.503C94.88 102.354 95.0121 102.185 95.1607 102.016L96.2642 100.741C96.3261 100.671 96.3784 100.611 96.4307 100.55C96.5655 100.393 96.7196 100.214 96.8916 100.04L98.4245 98.4325L98.7698 98.1023L100.078 96.8543C100.197 96.7387 100.327 96.619 100.479 96.491L100.823 96.1925C100.981 96.0562 101.137 95.9214 101.291 95.7866C101.604 95.5141 101.929 95.232 102.262 94.9527L102.274 94.9417C104.334 93.2603 106.565 91.7013 108.901 90.3074C111.309 88.8613 113.959 87.5761 116.776 86.4905C119.701 85.3649 122.739 84.4939 125.804 83.905C128.628 83.3615 131.518 83.0478 134.414 82.9694V82.9487L135.79 82.9501L137.166 82.9487V82.9694C140.063 83.0478 142.954 83.3615 145.777 83.905C148.841 84.4939 151.88 85.3636 154.805 86.4905C157.623 87.5761 160.273 88.8613 162.684 90.3088C165.017 91.7013 167.246 93.2603 169.306 94.9417L169.319 94.9527C169.652 95.2307 169.976 95.5127 170.29 95.7866C170.446 95.9214 170.6 96.0562 170.754 96.1883L171.102 96.4897C171.253 96.6176 171.384 96.7373 171.502 96.8529L173.156 98.4312L174.689 100.038C174.862 100.213 175.015 100.392 175.15 100.549C175.202 100.609 175.255 100.67 175.307 100.73L176.427 102.024C176.567 102.182 176.698 102.351 176.814 102.501C176.869 102.571 176.922 102.642 176.979 102.71L178.016 104.031C178.243 104.331 178.455 104.631 178.662 104.922C178.762 105.065 178.862 105.206 178.964 105.347C179.469 106.029 179.907 106.716 180.331 107.38C180.456 107.577 180.58 107.773 180.705 107.965C180.925 108.296 181.111 108.62 181.291 108.935C181.36 109.056 181.429 109.178 181.499 109.296L182.239 110.585L182.894 111.861L183.242 112.542C183.341 112.733 183.443 112.931 183.538 113.151L184.39 115.035C184.427 115.115 184.463 115.196 184.496 115.277L185.098 116.802L185.419 117.616L185.748 118.586C185.924 119.107 186.097 119.616 186.261 120.112L186.269 120.139L186.857 122.205C186.945 122.498 187.011 122.783 187.069 123.036C187.085 123.109 187.355 124.275 187.355 124.275L187.554 125.142L187.717 126.048L188.014 127.715L188.209 129.235L188.315 130.076C188.339 130.259 188.364 130.447 188.375 130.652L188.54 132.832C188.558 133.024 188.562 133.196 188.566 133.371L188.595 134.489L188.626 135.785C188.622 139.258 188.282 142.724 187.614 146.093C186.942 149.484 185.931 152.821 184.609 156.01C181.985 162.349 178.022 168.276 173.151 173.148C168.278 178.02 162.352 181.982 156.012 184.607C152.822 185.929 149.485 186.941 146.095 187.612C142.727 188.279 139.259 188.621 135.792 188.625H135.788V188.626ZM90.9323 135.804C90.9378 141.67 92.1156 147.599 94.3406 152.954C96.5683 158.337 99.9325 163.367 104.07 167.506C108.209 171.644 113.24 175.008 118.621 177.236C123.983 179.464 129.918 180.643 135.788 180.646C141.659 180.643 147.595 179.464 152.954 177.237C158.337 175.01 163.368 171.645 167.507 167.508C171.644 163.369 175.008 158.337 177.236 152.957C179.462 147.6 180.64 141.67 180.646 135.805L180.592 133.675C180.589 133.55 180.588 133.454 180.58 133.368L180.426 131.34L180.424 131.322C180.42 131.233 180.405 131.116 180.388 130.992L180.126 128.927L179.82 127.221L179.735 126.743C179.735 126.743 179.328 124.979 179.311 124.906C179.266 124.704 179.222 124.513 179.168 124.341L178.645 122.5L177.925 120.364L177.127 118.34C177.112 118.304 177.096 118.27 177.081 118.234C177.064 118.197 176.796 117.605 176.796 117.605L176.294 116.494C176.245 116.379 176.178 116.249 176.106 116.11L175.23 114.399L174.601 113.307C174.536 113.197 174.466 113.073 174.396 112.949C174.254 112.699 174.119 112.462 173.975 112.247L173.961 112.227C173.831 112.027 173.703 111.824 173.572 111.62C173.226 111.078 172.869 110.516 172.481 109.995L172.468 109.978C172.365 109.835 172.262 109.689 172.159 109.544C171.987 109.3 171.826 109.072 171.656 108.847L170.759 107.707C170.7 107.632 170.641 107.557 170.583 107.481C170.497 107.369 170.415 107.264 170.338 107.177L169.328 106.011C169.28 105.958 169.225 105.892 169.169 105.827C169.067 105.707 168.971 105.594 168.88 105.505L167.513 104.073L166.047 102.673C165.985 102.613 165.913 102.548 165.822 102.471L165.495 102.188C165.338 102.053 165.178 101.914 165.017 101.773C164.764 101.553 164.503 101.325 164.243 101.107C162.494 99.6819 160.598 98.3569 158.607 97.1667C156.577 95.9448 154.333 94.8578 151.935 93.9345C146.776 91.9448 141.345 90.9335 135.792 90.9294C130.238 90.9349 124.807 91.9462 119.649 93.9345C117.251 94.8591 115.006 95.9462 112.981 97.1653C110.986 98.3569 109.09 99.6833 107.341 101.109C107.081 101.326 106.819 101.555 106.566 101.775C106.405 101.915 106.245 102.054 106.085 102.192L105.761 102.471C105.669 102.548 105.597 102.613 105.537 102.673L104.07 104.073L102.704 105.505C102.614 105.594 102.517 105.707 102.415 105.827C102.358 105.892 102.303 105.958 102.247 106.021L101.245 107.175C101.168 107.262 101.087 107.367 101 107.48C100.943 107.555 100.883 107.631 100.824 107.705L99.927 108.846C99.7578 109.07 99.5954 109.3 99.4248 109.542C99.3216 109.688 99.2198 109.834 99.1152 109.977L99.1028 109.993C98.7148 110.514 98.357 111.075 98.0117 111.618C97.8823 111.822 97.753 112.026 97.6223 112.225L97.6085 112.246C97.464 112.459 97.3292 112.697 97.1875 112.948C97.1173 113.072 97.0471 113.194 96.9756 113.316L96.3536 114.398L95.4771 116.108C95.4056 116.247 95.3382 116.378 95.29 116.492C95.29 116.492 94.5208 118.196 94.503 118.233C94.4864 118.267 94.4699 118.303 94.4562 118.339L93.6581 120.363L92.9385 122.498L92.4156 124.339C92.3619 124.511 92.3193 124.703 92.2725 124.905C92.256 124.978 92.2395 125.051 92.2216 125.124L92.0276 125.964L91.8473 126.743L91.7139 127.493L91.4565 128.927L91.1937 130.992C91.1772 131.116 91.1621 131.233 91.158 131.322L91.0025 133.367C90.9942 133.452 90.9915 133.549 90.9901 133.666L90.9653 134.687L90.9323 135.804Z" fill="white" stroke="black" stroke-width="0.25"/>
<defs>
<radialGradient id="paint0_radial" cx="0" cy="0" r="1" gradientUnits="userSpaceOnUse" gradientTransform="translate(135.5 135.5) rotate(89.7886) scale(135.501)">
<stop stop-color="#9E4BE8"/>
<stop offset="1" stop-color="#9E4BE8" stop-opacity="0"/>
</radialGradient>
</defs>
</svg>
